<?xml version="1.0" encoding="utf-8" ?>
<svg baseProfile="full" height="200mm" version="1.1" viewBox="0,0,200,200" width="200mm" xmlns="http://www.w3.org/2000/svg" xmlns:ev="http://www.w3.org/2001/xml-events" xmlns:xlink="http://www.w3.org/1999/xlink"><defs /><rect fill="#1a1a1a" height="200" width="200" x="0" y="0" /><rect fill="#1a1a1a" height="200" width="180" x="10" y="0" /><text alignment-baseline="middle" fill="#e1ed5e" style="dominant-baseline: central; font-size:9.0px; font-family:Arial;" text-anchor="middle" x="100.0" y="100.0">2019</text><line stroke="#e1ed5e" stroke-width="0.3" x1="100.0" x2="100.0" y1="15.0" y2="10.0" /><path d="M 100.0 14.0 a86.0,86.0 0 0,1 42.46469731375804,11.215312516191453" fill="none" id="id13" stroke="none" /><text fill="#e1ed5e" style="font-size:6.75px; font-family:Arial;" text-anchor="middle"><textPath startOffset="22.20632615414155" xlink:href="#id13">January</textPath></text><path d="M 100.0 79.0 l 0.0 -35.57803760244951 a56.57803760244951,56.57803760244951 0 0,0 0.9738979118491706,0.008382646797829787 l -0.6124174325766422 35.572766332260244" fill="#5bff2a" stroke="none" /><path d="M 100.36148047927253 79.00311137660856 l 0.44009614021788673 -25.5633434434303 a46.567131489852464,46.567131489852464 0 0,0 0.8013390950386197,0.02069622464423156 l -0.8800618704513742 25.55198042664371" fill="#cbff1d" stroke="none" /><path d="M 102.16513564639614 79.11191278185805 l 0.6813044374530772 -6.572866016646463 a27.608081673926193,27.608081673926193 0 0,0 0.4722734375951071,0.053065423489229026 l -0.7943445785579095 6.560164639686634" fill="#ff3905" stroke="none" /><path d="M 102.52436894288641 79.15227682838746 l 1.3418271547294516 -11.08159769782547 a32.16254037616976,32.16254037616976 0 0,0 0.5490379532680275,0.07128088382895706 l -1.5323798365053252 11.056858490832376" fill="#ff790b" stroke="none" /><path d="M 105.36241919743992 79.69619591428918 l 3.541201296784851 -13.408100842304618 a34.86785040378503,34.86785040378503 0 0,0 0.5789758587634155,0.15825597313981263 l -3.7714750447719774 13.345158328338512" fill="#ff9e0e" stroke="none" /><path d="M 107.4271985657038 80.35727306442388 l 4.906774398966812 -12.976956089263716 a34.87363774736225,34.87363774736225 0 0,0 0.5596668104078175,0.21714202749265002 l -5.129424374374297 12.89057135788052" fill="#ff9f0e" stroke="none" /><path d="M 108.43124777332544 80.76684994638697 l 2.3357219794008746 -5.328190147070074 a26.817663397652957,26.817663397652957 0 0,0 0.4211878537849937,0.1889747126620763 l -2.4270919516526486 5.287195103891466" fill="#ff2d04" stroke="none" /><line stroke="#e1ed5e" stroke-width="0.3" x1="143.23703022742887" x2="145.7803849466894" y1="26.81831364943548" y2="22.513508569990506" /><path d="M 143.74570117128098 25.957352633546492 a86.0,86.0 0 0,1 28.547481713284135,27.462654790039103" fill="none" id="id14" stroke="none" /><text fill="#e1ed5e" style="font-size:6.75px; font-family:Arial;" text-anchor="middle"><textPath startOffset="19.985693538727396" xlink:href="#id14">February</textPath></text><path d="M 111.2981086023043 82.29822771554956 l 1.6623408072444419 -2.6045402345476667 a24.08982310056866,24.08982310056866 0 0,0 0.3476195591664702,0.2261014309489875 l -1.7069273921951922 2.575539879439151" fill="#ff0500" stroke="none" /><path d="M 114.16331599549186 84.49514656593476 l 6.289002304939378 -6.884691340334474 a30.324726529137962,30.324726529137962 0 0,0 0.382368976713952,0.35537029177912083 l -6.406579165448177 6.775416462480712" fill="#ff6008" stroke="none" /><path d="M 115.19652480421416 85.50635884689758 l 25.185253941399555 -24.02036239727505 a55.80337377021382,55.80337377021382 0 0,0 0.6569722638234851,0.7008122049804929 l -25.594993527193505 23.5832807754165" fill="#63ff29" stroke="none" /><path d="M 115.68641384162765 86.03803664274999 l 47.05924152488298 -41.88589007175005 a84.0,84.0 0 0,0 0.9520325456886072,1.0883377751882088 l -47.773265934149435 41.069636740358895" fill="#4dd2ff" stroke="none" /><line stroke="#e1ed5e" stroke-width="0.3" x1="172.23445277983987" x2="176.4835382374775" y1="55.19839476539836" y2="52.563006222186495" /><path d="M 173.08426987136738 54.67131705675599 a86.0,86.0 0 0,1 12.851231095245387,41.99856678651699" fill="none" id="id15" stroke="none" /><text fill="#e1ed5e" style="font-size:6.75px; font-family:Arial;" text-anchor="middle"><textPath startOffset="22.20632615414155" xlink:href="#id15">March</textPath></text><path d="M 117.84615892207809 88.93136811851018 l 2.5185387971854882 -1.5620604381601133 a23.963624552029742,23.963624552029742 0 0,0 0.21439935567270252,0.35241616821108573 l -2.5450539511444146 1.5184764967419462" fill="#ff0300" stroke="none" /><path d="M 118.89224826269711 90.83032412892265 l 3.0247884822000817 -1.4681328328247907 a24.36225510288384,24.36225510288384 0 0,0 0.1798651444399525,0.3788418655212698 l -3.04961182048179 1.4158485516629806" fill="#ff0901" stroke="none" /><path d="M 119.04729006885535 91.15688171328212 l 6.412495394033387 -2.9771403216666927 a28.069898278857558,28.069898278857558 0 0,0 0.19969417933027875,0.4399996536877129 l -6.462791890327012 2.866318659136917" fill="#ff3f05" stroke="none" /><path d="M 119.7369772167798 92.82701384747503 l 3.22730527765336 -1.1728957181395203 a24.43382930862896,24.43382930862896 0 0,0 0.14025823081781916,0.39652890589846196 l -3.247016589280989 1.1171691858144437" fill="#ff0a01" stroke="none" /><path d="M 119.97218684219823 93.5106431181261 l 17.78871163594964 -5.779902781127523 a39.70415830306875,39.70415830306875 0 0,0 0.20560045176465577,0.6518096174839076 l -17.8855675714825 5.472842997217197" fill="#ffde14" stroke="none" /><path d="M 120.18372546131832 94.20196356495316 l 21.877561185076416 -6.284612674906777 a43.76233819009728,43.76233819009728 0 0,0 0.20175110894049042,0.7258060822651431 l -21.982499064583273 5.907095289222681" fill="#edff1a" stroke="none" /><path d="M 120.73433829027371 96.67025291283417 l 30.86518293515862 -4.956669054705011 a52.26064755789101,52.26064755789101 0 0,0 0.13499200643149678,0.8894286582930863 l -30.94593083502942 4.424641284019843" fill="#89ff24" stroke="none" /><path d="M 120.78858239683441 97.02765380044208 l 3.2420478128216756 -0.46354716792487727 a24.27501908353417,24.27501908353417 0 0,0 0.05558285907065245,0.4141568611266921 l -3.2495466709501644 0.40767196473352085" fill="#ff0801" stroke="none" /><path d="M 120.98425023603335 99.18683210126433 l 31.411742006776812 -1.217247219031735 a52.43531814206033,52.43531814206033 0 0,0 0.027187226916486215,0.9022117035235205 l -31.428040928148945 0.6763653680832152" fill="#87ff25" stroke="none" /><line stroke="#e1ed5e" stroke-width="0.3" x1="184.98032266829074" x2="189.97916517819016" y1="98.17113171792111" y2="98.06355123074" /><path d="M 185.9800911702706 98.14961562048488 a86.0,86.0 0 0,1 -9.607161424134198,41.387399972396054" fill="none" id="id16" stroke="none" /><text fill="#e1ed5e" style="font-size:6.75px; font-family:Arial;" text-anchor="middle"><textPath startOffset="21.466115282336823" xlink:href="#id16">April</textPath></text><path d="M 120.99513854157772 99.54816195383933 l 4.721807378593537 -0.10161839208946712 a25.722900720759565,25.722900720759565 0 0,0 0.005716599741690209,0.44275694990785586 l -4.7228569854529425 0.020325184121148542" fill="#ff1d02" stroke="none" /><path d="M 120.99824983174949 100.27111621757518 l 19.66453049991296 0.2538960709700289 a40.66616950493565,40.66616950493565 0 0,0 -0.0150618532023929,0.6998651338994861 l -19.657246584025557 -0.5923510206596299" fill="#ffeb16" stroke="none" /><path d="M 120.9764740272857 100.99374915477107 l 2.770303519457781 0.13124163657531068 a23.773410528048657,23.773410528048657 0 0,0 -0.022883208505747255,0.40859505994009426 l -2.7676339600645044 -0.17890841285082826" fill="#ff0000" stroke="none" /><path d="M 120.81339534386255 102.79330883721812 l 20.393887101591616 2.7370077839271247 a41.57673061304304,41.57673061304304 0 0,0 -0.10130061321159378,0.7084962528632468 l -20.343752437363424 -3.087649508770781" fill="#fff617" stroke="none" /><path d="M 120.76222939487914 103.15116336523771 l 21.396414559186628 3.247416085431417 a42.64144790027904,42.64144790027904 0 0,0 -0.116387285006596,0.7247437348364125 l -21.33734551981874 -3.6152390499610343" fill="#fbff18" stroke="none" /><path d="M 120.70491114924044 103.5080841355445 l 13.41655902599094 2.273200668837539 a34.60777341737811,34.60777341737811 0 0,0 -0.10457077838342353,0.5864884589580115 l -13.375441805268327 -2.5038078785287685" fill="#ff9b0e" stroke="none" /><path d="M 120.49622156327973 104.57218783832717 l 12.520175751546342 2.79293405997797 a33.827910255103674,33.827910255103674 0 0,0 -0.13167020190496298,0.5672317836772337 l -12.470244983710826 -3.0080345010037686" fill="#ff900d" stroke="none" /><path d="M 120.13307415673323 105.97154293290107 l 13.175343697189602 3.907854803047196 a34.74267116323362,34.74267116323362 0 0,0 -0.17499259336634918,0.5718859201249193 l -13.10612433131712 -4.134067695724172" fill="#ff9d0e" stroke="none" /><path d="M 119.79798401119884 107.00284435728193 l 5.82395066882336 2.0600188410692795 a27.177546359069147,27.177546359069147 0 0,0 -0.15979845813098917,0.4396967260696068 l -5.787627949687144 -2.1599633641450176" fill="#ff3204" stroke="none" /><path d="M 119.54520255179757 107.68017299344265 l 2.5957086767309714 1.0199685383173733 a23.788913651157692,23.788913651157692 0 0,0 -0.15303904971085872,0.3798303707412332 l -2.5777670127627204 -1.06449827690142" fill="#ff0000" stroke="none" /><path d="M 119.12269723197855 108.67885076344098 l 38.28093072851997 17.37382968773135 a63.03902491090915,63.03902491090915 0 0,0 -0.4569590343384077,0.9842491069808101 l -37.97619707734173 -18.030198861990993" fill="#32ff4b" stroke="none" /><path d="M 118.81262510543309 109.33194174019688 l 20.732877642107542 10.284476790371032 a44.14352346066353,44.14352346066353 0 0,0 -0.34352349163155593,0.6778044390711553 l -20.552775480689718 -10.639835441144882" fill="#e8ff1a" stroke="none" /><line stroke="#e1ed5e" stroke-width="0.3" x1="174.80103733775053" x2="179.2010983576182" y1="140.37084112569926" y2="142.7455964860345" /><path d="M 175.68104954172406 140.8457921977663 a86.0,86.0 0 0,1 -30.038265399797805,32.042727171017184" fill="none" id="id17" stroke="none" /><text fill="#e1ed5e" style="font-size:6.75px; font-family:Arial;" text-anchor="middle"><textPath startOffset="22.206326154141568" xlink:href="#id17">May</textPath></text><path d="M 118.12598468904814 110.60418214915192 l 2.8617611652386516 1.6742062395040864 a24.315515570656018,24.315515570656018 0 0,0 -0.21446183337823946,0.35945036856353746 l -2.8325184561621852 -1.7232187019537282" fill="#ff0801" stroke="none" /><path d="M 115.07121518719521 114.62390073753431 l 2.6426374499947975 2.564203833201774 a24.682210476102863,24.682210476102863 0 0,0 -0.2984894640361331,0.3023682511689279 l -2.598107360903129 -2.6093125783513664" fill="#ff0e01" stroke="none" /><line stroke="#e1ed5e" stroke-width="0.3" x1="143.8653032363475" x2="146.44561519142675" y1="172.8068346515853" y2="177.08958963109032" /><path d="M 144.38136562736335 173.6633856474863 a86.0,86.0 0 0,1 -40.68145358897372,12.25698825130547" fill="none" id="id18" stroke="none" /><text fill="#e1ed5e" style="font-size:6.75px; font-family:Arial;" text-anchor="middle"><textPath startOffset="21.466115282336833" xlink:href="#id18">June</textPath></text><path d="M 110.5260780823613 118.17145234162733 l 2.4884920797666217 4.295950958768894 a25.964653811818966,25.964653811818966 0 0,0 -0.38866766391473717,0.22069564317371992 l -2.4141756489306854 -4.338149767737242" fill="#ff2103" stroke="none" /><path d="M 109.89434966115114 118.52300852407294 l 1.6509278961376384 3.090668163149337 a24.503968123849067,24.503968123849067 0 0,0 -0.3737544721080769,0.19553067507969174 l -1.5974825215030657 -3.1186282571737456" fill="#ff0b01" stroke="none" /><path d="M 106.57524785965236 119.94407469862006 l 1.5447409589448493 4.685516003778892 a25.933587422141212,25.933587422141212 0 0,0 -0.42516098069815633,0.1361231198782983 l -1.4638586331557526 -4.711411970316896" fill="#ff2003" stroke="none" /><path d="M 103.41894727170886 120.7198165907248 l 1.5594089036918686 9.450472296488272 a30.57826616646279,30.57826616646279 0 0,0 -0.5200695251282658,0.08122416405504865 l -1.3965035149550855 -9.475914767890426" fill="#ff6309" stroke="none" /><line stroke="#e1ed5e" stroke-width="0.3" x1="102.19456741930631" x2="102.32365962044197" y1="184.97166512339345" y2="189.96999836594603" /><path d="M 102.22038585953345 185.97133177190398 a86.0,86.0 0 0,1 -42.740103519485714,-10.115201625700543" fill="none" id="id19" stroke="none" /><text fill="#e1ed5e" style="font-size:6.75px; font-family:Arial;" text-anchor="middle"><textPath startOffset="22.20632615414155" xlink:href="#id19">July</textPath></text><path d="M 90.10565033884886 118.52300852407294 l -6.0502923509800075 11.326627886455494 a33.84128252202865,33.84128252202865 0 0,0 -0.511450051885732,-0.27888334747028126 l 6.24436521473438 -11.220803887225447" fill="#ff910d" stroke="none" /><line stroke="#e1ed5e" stroke-width="0.3" x1="58.666819895761336" x2="56.23545636021788" y1="174.27360380694188" y2="178.64263932499728" /><path d="M 58.180547188652646 175.14741091055294 a86.0,86.0 0 0,1 -31.652253787137756,-30.449443065178592" fill="none" id="id20" stroke="none" /><text fill="#e1ed5e" style="font-size:6.75px; font-family:Arial;" text-anchor="middle"><textPath startOffset="22.20632615414155" xlink:href="#id20">August</textPath></text><path d="M 87.65650970185807 116.9893568818739 l -5.265882689340869 7.247865728930896 a29.95885473274965,29.95885473274965 0 0,0 -0.4145949263992369,-0.3067074149853205 l 5.38986258615867 -7.156148365205809" fill="#ff5a08" stroke="none" /><path d="M 87.36589467227662 116.77436683061367 l -1.8248108539252386 2.4228107860600816 a24.033141400866835,24.033141400866835 0 0,0 -0.32830561104583306,-0.2517307428805062 l 1.8662451934645583 -2.3910407013522086" fill="#ff0400" stroke="none" /><path d="M 85.44109423537348 115.13401014063109 l -2.3998881066866646 2.4946882362012217 a24.46163723120388,24.46163723120388 0 0,0 -0.30093643541178894,-0.29452964077406374 l 2.442474494474248 -2.4530084925045883" fill="#ff0a01" stroke="none" /><path d="M 82.44556493220864 111.52570212397912 l -4.470903702527504 2.9354578544583547 a26.3484476937309,26.3484476937309 0 0,0 -0.24566180552365752,-0.38127257760592154 l 4.520770371428207 -2.858063676930985" fill="#ff2603" stroke="none" /><line stroke="#e1ed5e" stroke-width="0.3" x1="26.63291911575756" x2="22.317208475507996" y1="142.92168965132927" y2="145.44649492493687" /><path d="M 25.769776987707644 143.4266507060508 a86.0,86.0 0 0,1 -11.730757126820373,-40.83630448921669" fill="none" id="id21" stroke="none" /><text fill="#e1ed5e" style="font-size:6.75px; font-family:Arial;" text-anchor="middle"><textPath startOffset="21.46611528233685" xlink:href="#id21">September</textPath></text><path d="M 81.02952815118164 109.00673069616217 l -4.327896909962293 2.0547829415856502 a25.790910623283693,25.790910623283693 0 0,0 -0.1869538691275783,-0.4026820019038114 l 4.362625395929698 -1.9799808724030117" fill="#ff1e03" stroke="none" /><path d="M 79.58551787078972 104.9243191809786 l -6.348726937904391 1.5314205688512132 a27.530817918972588,27.530817918972588 0 0,0 -0.1071596893412262,-0.461641137052369 l 6.374147193176173 -1.42191077445027" fill="#ff3805" stroke="none" /><path d="M 79.50377843672027 104.57218783832718 l -3.2104505318781413 0.7161701893241736 a24.28936047852972,24.28936047852972 0 0,0 -0.08751799092269186,-0.4088549173514024 l 3.222302561525274 -0.6608014525566074" fill="#ff0801" stroke="none" /><path d="M 79.4281124754447 104.21870165774334 l -4.024680281544841 0.825346014330165 a25.108436127290595,25.108436127290595 0 0,0 -0.08318074210722878,-0.42413681194987524 l 4.038290956627736 -0.7559454753123349" fill="#ff1402" stroke="none" /><line stroke="#e1ed5e" stroke-width="0.3" x1="15.007084014347285" x2="10.007500721073583" y1="101.09737516637583" y2="101.16192664675087" /><path d="M 14.007167355692545 101.11028546245083 a86.0,86.0 0 0,1 10.666146001902534,-42.60595125391555" fill="none" id="id22" stroke="none" /><text fill="#e1ed5e" style="font-size:6.75px; font-family:Arial;" text-anchor="middle"><textPath startOffset="22.20632615414155" xlink:href="#id22">October</textPath></text><path d="M 79.08570108090925 98.10471618934814 l -2.8500710510213034 -0.25827753266342945 a23.86174986323899,23.86174986323899 0 0,0 0.0405909662555516,-0.4087454907627276 l 2.845202959083523 0.3072985541305873" fill="#ff0100" stroke="none" /><path d="M 79.32604984820605 96.31383870115002 l -4.1264450820379555 -0.7357443571043086 a25.19152344310348,25.19152344310348 0 0,0 0.07979028311551326,-0.42624288292619994 l 4.113169075012581 0.8066653174930812" fill="#ff1502" stroke="none" /><path d="M 79.54389044137918 95.25157060432595 l -4.762940670005772 -1.105610400770247 a25.889578528287114,25.889578528287114 0 0,0 0.10450414639383976,-0.4332371543311367 l 4.743203723351118 1.1874327867607803" fill="#ff2003" stroke="none" /><path d="M 79.81627453868168 94.20196356495316 l -4.422703537706875 -1.2704788470383876 a25.60156745937913,25.60156745937913 0 0,0 0.12531857902480922,-0.4225119492688986 l 4.400179061570359 1.3464201830538254" fill="#ff1b02" stroke="none" /><path d="M 80.2630227832202 92.82701384747504 l -3.8284454119553066 -1.3913673620855298 a25.073438032988655,25.073438032988655 0 0,0 0.1509127389456449,-0.404371111281038 l 3.803928084508034 1.4570616103959093" fill="#ff1302" stroke="none" /><path d="M 80.38941819471856 92.48833698450439 l -3.4514885079305397 -1.322062692012921 a24.69602796012003,24.69602796012003 0 0,0 0.15547496136333194,-0.39566681820497307 l 3.4282199966855167 1.3812785151136575" fill="#ff0e01" stroke="none" /><path d="M 80.65960295795068 91.81776055985345 l -4.073119365134682 -1.7231930575866945 a25.422634472387486,25.422634472387486 0 0,0 0.17397470256932382,-0.40155760006443514 l 4.042853952722678 1.7930498022377288" fill="#ff1902" stroke="none" /><path d="M 80.95270993114464 91.15688171328213 l -3.0394878189501107 -1.4111482639708233 a24.35109319841361,24.35109319841361 0 0,0 0.1797827367338041,-0.3786682938755341 l 3.014746888374555 1.4632589734868897" fill="#ff0901" stroke="none" /><path d="M 81.26839172434947 90.50648371742162 l -3.615012308565116 -1.832153315831196 a25.05278913389144,25.05278913389144 0 0,0 0.19826367748007404,-0.3829823188304293 l 3.5829391979249277 1.894108356921961" fill="#ff1302" stroke="none" /><line stroke="#e1ed5e" stroke-width="0.3" x1="26.266209847984243" x2="21.928928074336255" y1="57.711370442889674" y2="55.22380399835377" /><path d="M 25.398753493254645 57.213857153982495 a86.0,86.0 0 0,1 29.58750427330803,-30.492523968695096" fill="none" id="id23" stroke="none" /><text fill="#e1ed5e" style="font-size:6.75px; font-family:Arial;" text-anchor="middle"><textPath startOffset="21.46611528233685" xlink:href="#id23">November</textPath></text><path d="M 82.7489923806493 88.02491185347247 l -3.1594276739694274 -2.1931718844018646 a24.846035119649155,24.846035119649155 0 0,0 0.24690733225621034,-0.34923291138791374 l 3.121207721909339 2.2472312961215644" fill="#ff1001" stroke="none" /><path d="M 86.10567301691215 84.25364557470407 l -2.3925201842592254 -2.7114282567897106 a24.616074670662304,24.616074670662304 0 0,0 0.3201334593110456,-0.2776165812670448 l 2.3454929263014064 2.752209831476436" fill="#ff0d01" stroke="none" /><path d="M 88.39885842347998 82.49532879139004 l -3.3897397946612315 -5.114693256427347 a27.135994050099246,27.135994050099246 0 0,0 0.3915762373953077,-0.2546920772035723 l 3.301196531481637 5.172284257790454" fill="#ff3204" stroke="none" /><line stroke="#e1ed5e" stroke-width="0.3" x1="56.762969772571076" x2="54.21961505331055" y1="26.818313649435495" y2="22.513508569990535" /><path d="M 56.25429882871897 25.957352633546506 a86.0,86.0 0 0,1 42.265352541879196,-11.944610805530505" fill="none" id="id24" stroke="none" /><text fill="#e1ed5e" style="font-size:6.75px; font-family:Arial;" text-anchor="middle"><textPath startOffset="22.20632615414155" xlink:href="#id24">December</textPath></text><path d="M 95.692805502759 79.44645832069477 l -0.6440794330747284 -3.0734886666865053 a24.140250133406614,24.140250133406614 0 0,0 0.4074340729116545,-0.0817274420853237 l 0.5910789506959374 3.08412006484904" fill="#ff0600" stroke="none" /><path d="M 96.40284397218896 79.31037775812273 l -1.2489586744931447 -7.183586970149736 a28.29135237992903,28.29135237992903 0 0,0 0.4805094815597054,-0.07928818162146195 l 1.1251199867945536 7.204021414710825" fill="#ff4306" stroke="none" /><path d="M 96.75951476605007 79.25152402106235 l -1.2961810917759553 -8.29930714243218 a29.399915741666895,29.399915741666895 0 0,0 0.5006819924763881,-0.07378751070421918 l 1.1531301188709184 8.320389137297369" fill="#ff5207" stroke="none" /><path d="M 97.83486435360386 79.11191278185805 l -4.572493349840569 -44.113005138879274 a65.34935081618586,65.34935081618586 0 0,0 1.1198852057004975,-0.10634659430617112 l 3.8124830170498347 44.18517727770063" fill="#35ff67" stroke="none" /><path d="M 99.27714615592234 79.0124445844662 l -0.3277018300522432 -9.514593267147891 a30.52023495133789,30.52023495133789 0 0,0 0.5251999999527539,-0.013564366507850319 l 0.16387519490461028 9.518824425798101" fill="#ff6209" stroke="none" /><path d="M 99.63851952072746 79.00311137660856 l -0.1864859626561995 -10.832189322084918 a31.83379446564122,31.83379446564122 0 0,0 0.5479664419287326,-0.004716520164860327 l 2.653514342993566e-15 10.833794465641219" fill="#ff750a" stroke="none" /></svg>